<svg xmlns="http://www.w3.org/2000/svg" width="48" height="48" fill="none" id="sketch"><path fill="#fff" d="M24 48c13.255 0 24-10.745 24-24S37.255 0 24 0 0 10.745 0 24s10.745 24 24 24Z"></path><mask id="a" width="30" height="27" x="9" y="12" maskUnits="userSpaceOnUse"><path fill="#fff" fill-rule="evenodd" d="m15.879 13.658 8.11-.858 8.11.857 6.28 8.43-14.39 16.756L9.6 22.085l6.279-8.428Z" clip-rule="evenodd"></path></mask><g mask="url(#a)"><path fill="#FDB300" d="M9.234 39.208h29.51V12.434H9.234v26.774Z"></path></g><mask id="b" width="15" height="17" x="9" y="22" maskUnits="userSpaceOnUse"><path fill="#fff" fill-rule="evenodd" d="m15.428 22.086 8.561 16.757L9.6 22.085h5.828Z" clip-rule="evenodd"></path></mask><g mask="url(#b)"><path fill="#EA6C00" d="M9.234 39.209h15.121V21.72H9.234V39.21Z"></path></g><mask id="c" width="16" height="17" x="23" y="22" maskUnits="userSpaceOnUse"><path fill="#fff" fill-rule="evenodd" d="m32.55 22.086-8.56 16.757 14.389-16.757H32.55Z" clip-rule="evenodd"></path></mask><g mask="url(#c)"><path fill="#EA6C00" d="M23.623 39.209h15.121V21.72h-15.12V39.21Z"></path></g><mask id="d" width="18" height="17" x="15" y="22" maskUnits="userSpaceOnUse"><path fill="#fff" fill-rule="evenodd" d="M15.428 22.086H32.55l-8.56 16.757-8.562-16.757Z" clip-rule="evenodd"></path></mask><g mask="url(#d)"><path fill="#FDAD00" d="M15.062 39.209h17.854V21.72H15.062V39.21Z"></path></g><mask id="e" width="9" height="11" x="15" y="12" maskUnits="userSpaceOnUse"><path fill="#fff" fill-rule="evenodd" d="m23.99 12.8-8.111.857-.45 8.43 8.56-9.287Z" clip-rule="evenodd"></path></mask><g mask="url(#e)"><path fill="#FDD231" d="M15.062 22.452h9.293V12.434h-9.293v10.018Z"></path></g><mask id="f" width="10" height="11" x="23" y="12" maskUnits="userSpaceOnUse"><path fill="#fff" fill-rule="evenodd" d="m23.99 12.8 8.11.857.45 8.43-8.56-9.287Z" clip-rule="evenodd"></path></mask><g mask="url(#f)"><path fill="#FDD231" d="M23.623 22.452h9.293V12.434h-9.293v10.018Z"></path></g><mask id="g" width="7" height="10" x="32" y="13" maskUnits="userSpaceOnUse"><path fill="#fff" fill-rule="evenodd" d="m38.379 22.086-6.28-8.428.451 8.428h5.829Z" clip-rule="evenodd"></path></mask><g mask="url(#g)"><path fill="#FDAD00" d="M31.734 22.452h7.01v-9.16h-7.01v9.16Z"></path></g><mask id="h" width="7" height="10" x="9" y="13" maskUnits="userSpaceOnUse"><path fill="#fff" fill-rule="evenodd" d="m9.6 22.086 6.279-8.428-.45 8.428H9.6Z" clip-rule="evenodd"></path></mask><g mask="url(#h)"><path fill="#FDAD00" d="M9.234 22.452h7.01v-9.16h-7.01v9.16Z"></path></g><mask id="i" width="18" height="11" x="15" y="12" maskUnits="userSpaceOnUse"><path fill="#fff" fill-rule="evenodd" d="m23.99 12.8-8.562 9.286H32.55L23.99 12.8Z" clip-rule="evenodd"></path></mask><g mask="url(#i)"><path fill="#FEEEB7" d="M15.062 22.452h17.854V12.434H15.062v10.018Z"></path></g></svg>